<mxfile host="Electron" agent="Mozilla/5.0 (Windows NT 10.0; Win64; x64) AppleWebKit/537.36 (KHTML, like Gecko) draw.io/24.7.5 Chrome/126.0.6478.183 Electron/31.3.0 Safari/537.36" version="24.7.5">
  <diagram name="Page-1" id="1n1N_2L46IX28LnUbEB5">
    <mxGraphModel dx="1434" dy="844" grid="1" gridSize="10" guides="1" tooltips="1" connect="1" arrows="1" fold="1" page="1" pageScale="1" pageWidth="690" pageHeight="980" math="0" shadow="0">
      <root>
        <mxCell id="0" />
        <mxCell id="1" parent="0" />
        <mxCell id="IcuIUFkSu8N3AjVT4SCI-9" value="" style="edgeStyle=orthogonalEdgeStyle;rounded=0;orthogonalLoop=1;jettySize=auto;html=1;" edge="1" parent="1" source="IcuIUFkSu8N3AjVT4SCI-1" target="IcuIUFkSu8N3AjVT4SCI-6">
          <mxGeometry relative="1" as="geometry" />
        </mxCell>
        <mxCell id="IcuIUFkSu8N3AjVT4SCI-1" value="Начало" style="ellipse;whiteSpace=wrap;html=1;" vertex="1" parent="1">
          <mxGeometry x="230" y="120" width="190" height="40" as="geometry" />
        </mxCell>
        <mxCell id="IcuIUFkSu8N3AjVT4SCI-8" value="" style="edgeStyle=orthogonalEdgeStyle;rounded=0;orthogonalLoop=1;jettySize=auto;html=1;" edge="1" parent="1" source="IcuIUFkSu8N3AjVT4SCI-2" target="IcuIUFkSu8N3AjVT4SCI-6">
          <mxGeometry relative="1" as="geometry" />
        </mxCell>
        <mxCell id="IcuIUFkSu8N3AjVT4SCI-2" value="Буква через комутатор" style="rounded=0;whiteSpace=wrap;html=1;" vertex="1" parent="1">
          <mxGeometry x="230" y="190" width="190" height="50" as="geometry" />
        </mxCell>
        <mxCell id="IcuIUFkSu8N3AjVT4SCI-13" value="" style="edgeStyle=orthogonalEdgeStyle;rounded=0;orthogonalLoop=1;jettySize=auto;html=1;" edge="1" parent="1" source="IcuIUFkSu8N3AjVT4SCI-3" target="IcuIUFkSu8N3AjVT4SCI-12">
          <mxGeometry relative="1" as="geometry" />
        </mxCell>
        <mxCell id="IcuIUFkSu8N3AjVT4SCI-3" value="Буква через рефлектор" style="rounded=0;whiteSpace=wrap;html=1;" vertex="1" parent="1">
          <mxGeometry x="230" y="490" width="190" height="50" as="geometry" />
        </mxCell>
        <mxCell id="IcuIUFkSu8N3AjVT4SCI-11" value="" style="edgeStyle=orthogonalEdgeStyle;rounded=0;orthogonalLoop=1;jettySize=auto;html=1;" edge="1" parent="1" source="IcuIUFkSu8N3AjVT4SCI-4" target="IcuIUFkSu8N3AjVT4SCI-3">
          <mxGeometry relative="1" as="geometry" />
        </mxCell>
        <mxCell id="IcuIUFkSu8N3AjVT4SCI-4" value="Буква через ротор3" style="rounded=0;whiteSpace=wrap;html=1;" vertex="1" parent="1">
          <mxGeometry x="230" y="420" width="190" height="50" as="geometry" />
        </mxCell>
        <mxCell id="IcuIUFkSu8N3AjVT4SCI-10" value="" style="edgeStyle=orthogonalEdgeStyle;rounded=0;orthogonalLoop=1;jettySize=auto;html=1;" edge="1" parent="1" source="IcuIUFkSu8N3AjVT4SCI-5" target="IcuIUFkSu8N3AjVT4SCI-4">
          <mxGeometry relative="1" as="geometry" />
        </mxCell>
        <mxCell id="IcuIUFkSu8N3AjVT4SCI-5" value="Буква через ротор 2" style="rounded=0;whiteSpace=wrap;html=1;" vertex="1" parent="1">
          <mxGeometry x="230" y="340" width="190" height="50" as="geometry" />
        </mxCell>
        <mxCell id="IcuIUFkSu8N3AjVT4SCI-7" value="" style="edgeStyle=orthogonalEdgeStyle;rounded=0;orthogonalLoop=1;jettySize=auto;html=1;" edge="1" parent="1" source="IcuIUFkSu8N3AjVT4SCI-6" target="IcuIUFkSu8N3AjVT4SCI-5">
          <mxGeometry relative="1" as="geometry" />
        </mxCell>
        <mxCell id="IcuIUFkSu8N3AjVT4SCI-6" value="Буква через ротор 1" style="rounded=0;whiteSpace=wrap;html=1;" vertex="1" parent="1">
          <mxGeometry x="230" y="260" width="190" height="50" as="geometry" />
        </mxCell>
        <mxCell id="IcuIUFkSu8N3AjVT4SCI-12" value="А" style="ellipse;whiteSpace=wrap;html=1;aspect=fixed;" vertex="1" parent="1">
          <mxGeometry x="300" y="560" width="50" height="50" as="geometry" />
        </mxCell>
        <mxCell id="IcuIUFkSu8N3AjVT4SCI-15" value="Конец" style="ellipse;whiteSpace=wrap;html=1;" vertex="1" parent="1">
          <mxGeometry x="480" y="570" width="190" height="40" as="geometry" />
        </mxCell>
        <mxCell id="IcuIUFkSu8N3AjVT4SCI-28" value="" style="edgeStyle=orthogonalEdgeStyle;rounded=0;orthogonalLoop=1;jettySize=auto;html=1;" edge="1" parent="1" source="IcuIUFkSu8N3AjVT4SCI-19" target="IcuIUFkSu8N3AjVT4SCI-15">
          <mxGeometry relative="1" as="geometry" />
        </mxCell>
        <mxCell id="IcuIUFkSu8N3AjVT4SCI-19" value="Буква через комутатор" style="rounded=0;whiteSpace=wrap;html=1;" vertex="1" parent="1">
          <mxGeometry x="480" y="500" width="190" height="50" as="geometry" />
        </mxCell>
        <mxCell id="IcuIUFkSu8N3AjVT4SCI-20" value="" style="edgeStyle=orthogonalEdgeStyle;rounded=0;orthogonalLoop=1;jettySize=auto;html=1;" edge="1" parent="1" source="IcuIUFkSu8N3AjVT4SCI-21" target="IcuIUFkSu8N3AjVT4SCI-19">
          <mxGeometry relative="1" as="geometry" />
        </mxCell>
        <mxCell id="IcuIUFkSu8N3AjVT4SCI-21" value="Буква через ротор 1" style="rounded=0;whiteSpace=wrap;html=1;" vertex="1" parent="1">
          <mxGeometry x="480" y="430" width="190" height="50" as="geometry" />
        </mxCell>
        <mxCell id="IcuIUFkSu8N3AjVT4SCI-22" value="" style="edgeStyle=orthogonalEdgeStyle;rounded=0;orthogonalLoop=1;jettySize=auto;html=1;" edge="1" parent="1" source="IcuIUFkSu8N3AjVT4SCI-23" target="IcuIUFkSu8N3AjVT4SCI-21">
          <mxGeometry relative="1" as="geometry" />
        </mxCell>
        <mxCell id="IcuIUFkSu8N3AjVT4SCI-23" value="Буква через ротор 2" style="rounded=0;whiteSpace=wrap;html=1;" vertex="1" parent="1">
          <mxGeometry x="480" y="350" width="190" height="50" as="geometry" />
        </mxCell>
        <mxCell id="IcuIUFkSu8N3AjVT4SCI-24" value="" style="edgeStyle=orthogonalEdgeStyle;rounded=0;orthogonalLoop=1;jettySize=auto;html=1;" edge="1" parent="1" source="IcuIUFkSu8N3AjVT4SCI-25" target="IcuIUFkSu8N3AjVT4SCI-23">
          <mxGeometry relative="1" as="geometry" />
        </mxCell>
        <mxCell id="IcuIUFkSu8N3AjVT4SCI-25" value="Буква через ротор 3" style="rounded=0;whiteSpace=wrap;html=1;" vertex="1" parent="1">
          <mxGeometry x="480" y="270" width="190" height="50" as="geometry" />
        </mxCell>
        <mxCell id="IcuIUFkSu8N3AjVT4SCI-26" value="Б" style="ellipse;whiteSpace=wrap;html=1;aspect=fixed;" vertex="1" parent="1">
          <mxGeometry x="547.5" y="184" width="55" height="55" as="geometry" />
        </mxCell>
        <mxCell id="IcuIUFkSu8N3AjVT4SCI-30" value="" style="endArrow=classic;html=1;rounded=0;exitX=0.5;exitY=1;exitDx=0;exitDy=0;" edge="1" parent="1" source="IcuIUFkSu8N3AjVT4SCI-26">
          <mxGeometry width="50" height="50" relative="1" as="geometry">
            <mxPoint x="507.5" y="529" as="sourcePoint" />
            <mxPoint x="575.5" y="269" as="targetPoint" />
          </mxGeometry>
        </mxCell>
      </root>
    </mxGraphModel>
  </diagram>
</mxfile>
